<svg version="1.1" id="Layer_1" xmlns="http://www.w3.org/2000/svg" xmlns:xlink="http://www.w3.org/1999/xlink" x="0px" y="0px"
	 width="100%" viewBox="0 0 1080 1080" enable-background="new 0 0 1080 1080" xml:space="preserve">
<path fill="#000000" opacity="1.000000" stroke="none" 
	d="
M739.000000,1081.000000 
	C494.194855,1081.000000 249.889725,1080.991455 5.584616,1081.083618 
	C1.993871,1081.084961 0.893118,1080.526978 0.894375,1076.585571 
	C1.008188,719.626770 1.009423,362.667999 0.884376,5.709251 
	C0.882925,1.569576 1.819959,0.893861 5.789727,0.895119 
	C362.581848,1.008207 719.373962,1.007537 1076.166138,0.901419 
	C1080.043945,0.900265 1081.122803,1.431137 1081.121216,5.665111 
	C1080.989990,362.623871 1080.992310,719.582703 1081.100342,1076.541504 
	C1081.101440,1080.391479 1080.108521,1081.090088 1076.459473,1081.086670 
	C964.139709,1080.980469 851.819885,1081.000000 739.000000,1081.000000 
z"/>
<path fill="#E87121" opacity="1.000000" stroke="none" 
	d="
M510.968994,635.764526 
	C506.600677,645.995178 499.678528,653.530090 490.429108,658.847534 
	C488.718964,659.830688 487.980774,660.625244 488.114441,662.572876 
	C489.406830,681.406250 500.267242,693.293884 515.848572,702.386536 
	C545.829651,719.882446 575.946472,737.150879 605.356140,755.623535 
	C632.935364,772.946533 660.730774,789.931458 688.635254,806.725891 
	C694.326233,810.151001 699.889465,813.829285 705.766724,816.957092 
	C709.038757,818.698364 709.061829,820.250488 705.712036,822.076416 
	C683.503967,834.181458 661.326782,846.343323 639.152832,858.511047 
	C618.281494,869.963928 596.886780,880.427917 576.802734,893.362305 
	C564.568909,901.241089 551.805359,899.213562 539.882446,891.492493 
	C516.961914,876.649719 493.994354,861.912598 470.147583,848.544006 
	C460.816681,843.313049 450.495758,839.231873 443.282867,830.771179 
	C437.772400,824.307556 435.507324,816.815491 436.807007,808.236328 
	C437.518463,803.539917 438.051727,798.737549 437.899780,794.007507 
	C437.665527,786.715088 438.944031,779.586487 439.215149,771.933228 
	C445.750458,774.607422 451.069702,778.685242 456.757141,782.046143 
	C480.375519,796.003235 504.039490,809.892578 527.007812,824.918640 
	C534.058960,829.531494 540.688049,834.776367 548.655090,837.962219 
	C561.148499,842.958008 572.602478,840.811584 583.164795,833.237854 
	C591.635376,827.164062 600.980469,822.553284 610.217590,816.598022 
	C596.542908,808.234131 583.301819,800.094543 570.020752,792.020691 
	C542.068665,775.027954 514.070862,758.110413 486.142609,741.078796 
	C473.627594,733.446777 460.953674,726.081482 448.470490,718.390137 
	C440.634430,713.562134 438.340912,702.978638 439.225769,696.199036 
	C439.610260,693.253235 440.127502,690.315125 439.945984,687.390137 
	C439.368256,678.082458 441.050079,668.881165 441.037384,659.604980 
	C441.034729,657.667114 440.516174,656.494385 438.892059,655.174927 
	C425.724487,644.477539 419.622742,630.263611 421.208923,613.640137 
	C422.670319,598.324463 429.926453,585.738159 443.938446,578.030579 
	C461.353668,568.450989 478.776123,568.964844 494.968658,580.222229 
	C507.113037,588.665283 513.856079,600.844238 514.065918,616.152283 
	C514.156677,622.774231 513.711426,629.226685 510.968994,635.764526 
z"/>
<path fill="#E87121" opacity="1.000000" stroke="none" 
	d="
M865.701172,609.549927 
	C864.810364,630.685547 865.199890,651.459839 864.870789,672.223267 
	C864.790771,677.272766 865.893311,682.121582 865.366882,687.351685 
	C864.041748,700.518982 856.584839,708.383362 845.799744,714.086792 
	C823.559326,725.848206 801.268738,737.518311 779.560486,750.247009 
	C772.928101,754.135803 766.583313,758.511719 760.050293,762.573730 
	C746.551941,770.966797 732.628601,773.228699 719.031921,761.828125 
	C711.837891,755.796021 703.472961,751.188293 695.194275,746.637451 
	C692.420410,745.112671 691.983704,743.736206 695.179565,741.901611 
	C710.007019,733.390198 724.847839,724.894714 739.505310,716.096069 
	C759.751465,703.942932 781.336731,694.266052 801.598938,682.141846 
	C812.317932,675.727966 818.870911,657.407349 816.338135,646.006042 
	C814.712402,638.687744 815.342896,630.864929 815.005005,623.266296 
	C814.917603,621.300171 814.991882,619.326782 814.991882,616.826172 
	C806.889282,619.982666 800.209778,624.695435 793.112122,628.557861 
	C777.707214,636.941040 762.485535,645.662292 747.221924,654.303467 
	C720.301758,669.543762 693.416443,684.845642 666.492371,700.078979 
	C660.521545,703.457153 654.681396,707.231689 648.359253,709.775574 
	C642.310242,712.209473 635.637695,712.353821 629.734863,708.816162 
	C618.694031,702.199280 607.649841,695.554260 596.974792,688.374268 
	C591.301514,684.558350 586.369690,687.990845 581.175720,688.579773 
	C567.256348,690.157715 554.567688,687.795105 543.730408,678.292725 
	C532.143921,668.133545 526.402100,655.234680 527.115051,640.006470 
	C528.080627,619.385498 543.730713,600.616821 564.197754,596.924805 
	C576.146790,594.769348 587.402832,596.323486 597.712891,602.392822 
	C610.886169,610.147827 618.604492,621.849792 619.910278,637.269897 
	C620.145020,640.041992 621.886597,642.612488 620.403931,645.854187 
	C619.696167,647.401489 623.170166,648.118103 624.805603,648.816956 
	C637.577271,654.274414 649.973511,652.603699 662.069153,646.464233 
	C675.880371,639.454102 688.796387,630.900574 702.225647,623.231506 
	C714.208984,616.388245 726.090881,609.367676 738.039795,602.463745 
	C760.699097,589.371399 783.993286,577.423706 806.556335,564.140564 
	C822.218384,554.920105 838.443237,546.658264 854.368164,537.879944 
	C858.031677,535.860474 861.448792,533.385071 866.006531,531.803162 
	C866.006531,553.261353 866.006531,574.202576 865.930969,595.612183 
	C865.116028,600.428406 865.635132,604.805725 865.701172,609.549927 
z"/>
<path fill="#E87121" opacity="1.000000" stroke="none" 
	d="
M247.219238,741.773804 
	C239.237228,735.810242 236.296997,727.759155 236.029617,718.567444 
	C235.567062,702.666382 237.497726,686.842834 238.297989,670.999573 
	C239.297653,651.209229 238.504105,631.462402 238.950775,611.703430 
	C239.144653,603.127258 241.423126,595.344910 246.274673,588.310425 
	C248.691162,584.806763 252.359253,582.545593 256.061707,581.182007 
	C266.162720,577.461853 275.474304,572.202087 285.051147,567.449829 
	C289.929352,565.029175 290.009552,565.067261 290.020752,570.231140 
	C290.040985,579.560791 290.684753,588.950928 289.849274,598.205750 
	C288.695129,610.990479 289.714294,623.770386 288.951691,636.504517 
	C287.935577,653.471619 286.125275,670.400818 286.057617,687.412231 
	C285.998932,702.171265 293.150757,713.121826 305.757751,720.106201 
	C315.272308,725.377319 324.997925,730.269165 334.268005,735.987305 
	C334.651886,736.224060 335.179810,736.227295 335.645416,736.340454 
	C335.777740,735.957336 335.956512,735.674561 335.962738,735.388000 
	C336.317200,719.125183 336.352661,702.848511 337.075989,686.602417 
	C337.982208,666.248535 338.531342,645.887634 339.268707,625.535034 
	C339.567932,617.275391 339.371155,608.972961 340.049561,600.732605 
	C341.167938,587.148193 340.630188,573.536011 341.182739,559.957581 
	C341.382416,555.051147 341.532654,550.062134 342.095856,545.169861 
	C342.946075,537.783936 347.368073,532.806702 353.952148,529.491455 
	C364.702972,524.078247 375.334045,518.426880 386.095825,513.036011 
	C388.761993,511.700470 389.932526,509.985992 390.048126,506.987122 
	C390.780914,487.980255 407.564301,469.803955 427.973114,466.852325 
	C441.161377,464.944977 453.016327,466.907959 463.690186,474.965576 
	C474.075226,482.805084 480.098785,492.931488 482.188385,506.069794 
	C486.242950,531.563416 468.114594,554.609009 444.101196,558.765442 
	C434.431946,560.439087 424.358063,559.453064 415.289551,554.651733 
	C413.146881,553.517334 411.754974,553.582764 409.673920,554.834473 
	C396.109467,562.993591 390.305511,575.335876 388.932556,590.680237 
	C387.089417,611.279907 388.968384,631.907715 387.877747,652.472595 
	C387.243958,664.423828 387.821594,676.414124 386.793488,688.273621 
	C386.044739,696.910645 386.581451,705.492371 386.001343,714.070435 
	C384.840881,731.230225 384.546112,748.423523 383.763489,765.587402 
	C383.364044,774.346985 383.916321,783.159485 382.907288,791.839966 
	C381.791199,801.440979 382.235718,811.018738 382.012573,820.607910 
	C381.889954,825.876587 378.972473,823.040405 377.206482,821.981262 
	C367.195038,815.977051 357.241821,809.873901 347.326996,803.710693 
	C320.728882,787.177002 294.060516,770.752319 267.650055,753.923401 
	C261.045227,749.714722 253.314865,747.481140 247.219238,741.773804 
z"/>
<path fill="#E87121" opacity="1.000000" stroke="none" 
	d="
M631.013306,301.981750 
	C610.430908,288.573151 590.136902,275.364471 570.007324,261.909760 
	C561.509155,256.229584 553.840088,249.294434 544.369812,245.099670 
	C531.932190,239.590530 520.085266,241.157852 508.951447,248.498154 
	C501.260773,253.568436 493.406586,258.303955 485.145752,262.377808 
	C484.155792,262.865997 482.925751,263.199249 482.443817,264.509460 
	C512.515320,284.289856 542.580261,304.159027 572.744568,323.876068 
	C594.380127,338.018250 616.177368,351.912781 637.844604,366.006836 
	C647.473450,372.270264 650.681824,381.763550 648.591980,393.046631 
	C647.278809,400.136719 648.245911,407.660767 646.828918,414.716766 
	C645.424805,421.708435 648.507324,425.638641 653.160156,429.733612 
	C672.008484,446.322266 671.725830,478.459930 653.878052,495.783142 
	C646.109619,503.323273 637.063599,507.807190 626.118958,509.111847 
	C600.080078,512.215820 581.285828,496.329590 575.460449,474.945343 
	C570.550903,456.923309 576.733398,436.629974 593.045105,425.437836 
	C599.120911,421.269043 599.390991,421.254456 597.899536,413.459320 
	C596.558716,406.450928 593.203491,400.311768 588.437195,394.919159 
	C577.616882,382.676849 563.042847,375.700439 549.513550,367.357269 
	C528.054810,354.124298 507.033844,340.226532 485.922363,326.467224 
	C457.806122,308.142670 429.870178,289.541534 401.847443,271.073364 
	C397.097107,267.942688 392.286743,264.903229 387.528168,261.784943 
	C382.782623,258.675201 382.709808,257.702087 387.774567,255.086426 
	C397.357269,250.137527 407.118073,245.534851 416.737915,240.656281 
	C434.552917,231.621597 452.180756,222.205475 470.148895,213.489029 
	C485.517578,206.033585 500.842072,198.566864 515.580750,189.891235 
	C531.186584,180.705124 545.570862,184.491928 559.237366,194.698517 
	C579.001038,209.458603 599.865356,222.592545 620.640442,235.850861 
	C630.209045,241.957397 640.921021,246.489761 648.622070,255.183578 
	C654.090820,261.357300 656.045715,268.634369 655.266174,277.107056 
	C654.588562,284.472839 652.196411,291.675934 653.018860,299.181091 
	C653.493774,303.515015 651.478333,307.622437 651.920044,311.990082 
	C652.145386,314.218536 650.647766,314.488586 649.022583,313.456482 
	C643.113281,309.703674 637.249268,305.879517 631.013306,301.981750 
z"/>
<path fill="#E87121" opacity="1.000000" stroke="none" 
	d="
M740.699219,500.567749 
	C740.770691,511.011810 741.493774,521.078125 740.219788,531.214111 
	C739.160095,539.644897 734.027405,544.260254 727.516357,548.042969 
	C720.040649,552.386108 712.584290,556.861511 704.731140,560.423035 
	C698.985291,563.028809 696.871155,566.950928 695.914490,572.854004 
	C692.741882,592.430420 677.907776,606.136108 658.924255,609.987732 
	C643.219421,613.174255 629.378967,608.861755 617.943481,598.106628 
	C609.272583,589.951599 604.612549,579.498108 603.935486,567.308289 
	C603.087646,552.042542 608.113037,539.392578 619.380066,529.083069 
	C626.235840,522.810059 634.250305,518.900146 643.394897,518.120239 
	C652.902100,517.309448 662.503601,517.519287 671.262695,522.202759 
	C673.040344,523.153320 673.784729,522.443298 675.079651,521.520874 
	C686.867554,513.123596 691.571777,501.173553 691.932617,487.294037 
	C692.253479,474.953522 692.457947,462.577942 691.914978,450.253021 
	C690.215576,411.680542 690.549805,373.080200 691.269897,334.525757 
	C691.768921,307.810455 691.464478,281.089630 692.153381,253.610779 
	C698.454651,257.152069 704.371094,260.440491 710.253052,263.789612 
	C727.332947,273.514648 744.466614,283.148132 761.448303,293.042023 
	C774.159607,300.447876 786.563538,308.383270 799.307556,315.730469 
	C806.621216,319.946991 814.280823,323.583038 821.889893,327.263153 
	C834.685669,333.451782 841.297058,343.789520 840.922180,357.740967 
	C840.203491,384.487885 839.639160,411.235779 840.199402,437.977844 
	C840.361572,445.721008 840.714355,453.499939 841.059265,461.257568 
	C841.801636,477.952423 834.500061,489.122162 818.956055,495.098114 
	C810.981506,498.163940 803.856262,502.868469 796.475708,507.075684 
	C794.950317,507.945190 793.371643,509.702423 791.579712,508.633087 
	C790.258179,507.844482 791.026611,505.866058 791.025085,504.433502 
	C790.991699,472.775696 790.869934,441.116821 791.127808,409.461090 
	C791.170471,404.227692 792.046448,398.961334 792.019897,393.663940 
	C791.906494,371.013153 783.698120,360.612793 764.491943,352.394623 
	C756.235168,348.861633 748.789978,343.946533 740.034607,339.686584 
	C740.034607,391.574036 740.034607,442.880402 740.100098,494.590607 
	C740.849487,496.696228 740.310120,498.487396 740.699219,500.567749 
z"/>
<path fill="#E87121" opacity="1.000000" stroke="none" 
	d="
M402.976379,389.003540 
	C413.253479,383.616302 423.220032,378.408386 433.051422,372.956757 
	C443.719269,367.041290 453.719116,367.282684 463.686951,374.786377 
	C469.861176,379.434265 476.710175,383.175964 483.066986,387.596649 
	C485.163055,389.054352 486.457245,389.090576 488.747681,387.876251 
	C504.217773,379.674347 526.956482,381.775909 540.263489,393.540863 
	C551.935486,403.860321 557.431824,416.719299 556.865723,431.720551 
	C555.973877,455.355347 536.001648,475.966217 511.739349,476.157623 
	C492.196442,476.311829 478.083099,468.088379 468.711273,451.285278 
	C466.088165,446.582214 464.447113,441.387604 464.120026,436.017975 
	C463.955414,433.316010 462.776733,432.219421 460.650726,431.307678 
	C450.382355,426.904175 440.132080,427.006836 429.593842,430.615875 
	C415.726105,435.365234 403.583801,443.454926 390.789764,450.234955 
	C374.502289,458.866333 358.210480,467.492371 341.927277,476.134369 
	C306.012756,495.195221 269.652649,513.382324 233.480194,531.937256 
	C228.269821,534.609985 223.124832,537.410034 217.002747,540.652649 
	C217.190979,530.957092 216.500168,522.119995 217.438660,513.265320 
	C217.541794,512.292358 218.012024,511.326324 217.964905,510.374237 
	C217.446869,499.908203 218.628418,489.501770 219.020889,479.069611 
	C219.605377,463.533234 219.726044,447.945404 221.175522,432.485565 
	C222.515884,418.189484 221.324921,403.935974 222.045868,389.688110 
	C222.383377,383.018005 223.633133,376.624695 227.566376,370.808136 
	C232.622894,363.330475 240.359604,359.608673 247.930603,356.136353 
	C265.097900,348.262756 281.962769,339.861847 298.659973,331.039032 
	C312.046082,323.965759 324.519348,315.179291 338.733765,309.660583 
	C350.227539,305.198151 360.929047,306.863983 370.134644,314.770508 
	C377.738953,321.301666 386.283203,326.320709 394.603058,331.703430 
	C397.908661,333.842102 397.320129,334.676208 394.454681,336.183807 
	C381.889404,342.794739 369.304352,349.371063 356.824646,356.140930 
	C340.435791,365.031433 323.896912,373.615753 306.973450,381.447601 
	C299.566772,384.875275 292.009705,387.961609 285.337616,392.844757 
	C275.709259,399.891602 270.503571,409.108521 269.959503,421.130310 
	C269.665375,427.628937 271.523926,434.003113 270.894409,440.407623 
	C270.343109,446.015930 269.774292,451.576691 270.165741,457.652985 
	C314.435852,434.729980 358.521088,411.902740 402.976379,389.003540 
z"/>
<path fill="#DF9F40" opacity="1.000000" stroke="none" 
	d="
M865.916626,609.476074 
	C864.356384,605.588501 864.886597,601.185730 865.659912,596.431091 
	C865.896423,600.394165 865.937439,604.707581 865.916626,609.476074 
z"/>
<path fill="#FFFF00" opacity="1.000000" stroke="none" 
	d="
M740.917847,500.519592 
	C739.380127,499.387207 740.225891,497.499908 740.107910,495.383087 
	C741.826660,496.483185 740.644470,498.425842 740.917847,500.519592 
z"/>
<path fill="#000000" opacity="1.000000" stroke="none" 
	d="
M465.268311,594.039185 
	C481.597107,592.408813 492.991272,607.630981 492.087738,619.808960 
	C491.366791,629.525757 482.289825,640.252075 471.810638,642.052856 
	C463.300140,643.515381 450.860413,637.557129 446.551727,629.557922 
	C438.340698,614.313721 449.089355,595.161926 465.268311,594.039185 
z"/>
<path fill="#000000" opacity="1.000000" stroke="none" 
	d="
M582.680115,620.073120 
	C598.072815,627.492249 602.611816,644.434875 593.106140,656.901123 
	C587.711426,663.975952 580.516052,667.232605 572.406677,666.737061 
	C563.400085,666.186707 555.808960,661.378540 552.133179,652.694641 
	C544.691284,635.113770 555.392883,621.072571 571.857239,618.061157 
	C575.523438,617.390625 578.942322,618.682495 582.680115,620.073120 
z"/>
<path fill="#000000" opacity="1.000000" stroke="none" 
	d="
M439.136169,489.031616 
	C448.330200,489.898895 454.482971,494.809357 457.832458,502.528931 
	C461.802643,511.678894 461.376190,520.636780 454.049744,528.492859 
	C443.030212,540.308960 427.904053,539.525208 418.296204,528.654175 
	C411.895172,521.411560 409.483459,511.502808 414.586151,501.871918 
	C419.469696,492.654602 428.962555,487.512390 439.136169,489.031616 
z"/>
<path fill="#000000" opacity="1.000000" stroke="none" 
	d="
M644.953003,460.350159 
	C644.882141,476.668427 633.769958,487.865509 618.602112,487.057892 
	C609.351135,486.565338 600.358765,479.271545 597.270203,469.523438 
	C592.872009,455.641876 602.742615,442.182404 615.339233,439.236115 
	C627.740601,436.335571 641.474304,445.373260 644.006042,458.204254 
	C644.126099,458.812714 644.606628,459.350037 644.953003,460.350159 
z"/>
<path fill="#000000" opacity="1.000000" stroke="none" 
	d="
M658.935791,541.916382 
	C671.463623,546.116638 677.907898,561.717468 673.396729,572.175232 
	C667.619629,585.567566 654.993652,590.975830 644.025513,587.397522 
	C628.891357,582.460022 623.452515,567.462524 627.343323,556.616760 
	C631.538757,544.921936 645.129822,535.765808 658.935791,541.916382 
z"/>
<path fill="#000000" opacity="1.000000" stroke="none" 
	d="
M530.334473,443.139771 
	C525.778809,447.999390 521.154114,451.575256 514.675110,453.303986 
	C504.924225,455.905640 491.576324,448.046509 488.053741,439.097076 
	C481.554596,422.585388 491.833313,407.178986 508.760223,405.143646 
	C519.441956,403.859253 531.296570,413.427887 534.121338,424.270264 
	C535.955872,431.311768 533.643738,437.038727 530.334473,443.139771 
z"/>
</svg>